<svg xmlns="http://www.w3.org/2000/svg" height="32" width="32" viewBox="0 0 512 512"><path fill="#000" d="M118 17c42 107-62 115 21 211-29-84 51-129-21-211zm226 1-7 1c-5 2-11 8-18 19-6 11-9 23-10 31 0 9 3 14 6 15 3 2 8 2 15-3 8-4 16-13 23-24 6-11 8-19 7-25-1-5-4-9-8-11a17 17 0 0 0-8-3zm50 45h-1a69 69 0 0 0-44 29c-5 8-5 13-3 16 1 3 6 6 15 6 8-1 20-4 31-10 11-7 17-13 19-18s1-10-2-14c-2-5-6-8-11-9h-4zm43 10c-35 150 35 125 11 263 58-113-2-153-11-263zm-125 29a18 18 0 1 0-1 36 18 18 0 0 0 1-36zm-85 18c-58 21-65 77-51 118 10 13 57 26 57 26l-64-8c-39 5-69 28-69 56 0 7 2 14 6 20 11 13 82 30 82 30s-72-11-89-12c-45 6-79 35-79 70 0 39 43 71 97 71h276c53 0 97-32 97-71s-44-71-97-71h-2c13-10 21-23 21-37 0-30-34-54-76-56 28-96-136-68-109-136zM61 149c-88 77 25 65-5 186 59-112-31-111 5-186z"/></svg>
